<svg width="51" height="43" viewBox="0 0 51 43" fill="none" xmlns="http://www.w3.org/2000/svg">
<path d="M38.25 17.2C31.2099 17.2 25.5 22.9771 25.5 30.1C25.5 37.2229 31.2099 43 38.25 43C45.2901 43 51 37.2229 51 30.1C51 22.9771 45.2901 17.2 38.25 17.2ZM39.3125 35.4191V36.55H38.25V35.4771C37.1493 35.4578 36.0124 35.1934 35.0625 34.6967L35.547 32.9294C36.5628 33.3293 37.9142 33.7529 38.9725 33.5099C40.1922 33.2304 40.443 31.9597 39.0936 31.3491C38.1055 30.8826 35.0795 30.4848 35.0795 27.8619C35.0795 26.3977 36.1845 25.0841 38.25 24.7981V23.65H39.3125V24.7444C40.0817 24.7659 40.9445 24.9013 41.9071 25.1959L41.5225 26.9675C40.7065 26.6772 39.8055 26.4149 38.9258 26.4687C37.3448 26.5611 37.2045 27.9479 38.3095 28.5284C40.1285 29.3927 42.5 30.0334 42.5 32.3403C42.5021 34.185 41.072 35.1676 39.3125 35.4191ZM22.5016 23.65H17V19.35H25.0006C23.9721 20.6443 23.1285 22.0891 22.5016 23.65ZM21.25 30.1H17V25.8H21.811C21.4583 27.1782 21.25 28.6144 21.25 30.1ZM27.0449 17.2H17V12.9H31.875V14.1664C30.0921 14.8995 28.4665 15.9337 27.0449 17.2ZM31.875 4.3H17V0H31.875V4.3ZM31.875 10.75H17V6.45H31.875V10.75ZM22.5016 36.55H17V32.25H21.3966C21.5836 33.7507 21.9576 35.1934 22.5016 36.55ZM0 12.9H14.875V17.2H0V12.9ZM0 19.35H14.875V23.65H0V19.35ZM27.0449 43H17V38.7H23.5492C24.48 40.319 25.6615 41.7702 27.0449 43ZM0 32.25H14.875V36.55H0V32.25ZM0 38.7H14.875V43H0V38.7ZM0 25.8H14.875V30.1H0V25.8Z" fill="black"/>
</svg>
