<svg width="50" height="50" viewBox="0 0 50 50" fill="none" xmlns="http://www.w3.org/2000/svg">
<g clip-path="url(#clip0_3_64)">
<path d="M41.7562 22.4167C41.4625 21.5271 41.1021 20.6583 40.6812 19.8292L35.5687 22.1333C36.0208 22.9521 36.3812 23.8208 36.6458 24.7208L41.7562 22.4167ZM15.5646 20.5333C16.1292 19.7958 16.7708 19.1292 17.4771 18.5396L13.5396 14.4396C12.8562 15.05 12.2125 15.7188 11.625 16.4333L15.5646 20.5333ZM19.1354 17.3792C19.9271 16.9188 20.7625 16.5542 21.6313 16.2896L19.4792 10.9375C18.6208 11.2333 17.7854 11.5979 16.9792 12.0292L19.1354 17.3792ZM13.3875 24.9104C13.6396 24.0042 13.9854 23.1313 14.425 22.3063L9.27917 20.0854C8.87083 20.925 8.52083 21.8 8.24167 22.6896L13.3875 24.9104ZM33.0417 11.9938C32.2354 11.5667 31.3958 11.2042 30.5417 10.9125L28.4104 16.2729C29.2812 16.5333 30.1187 16.8958 30.9104 17.3542L33.0417 11.9938ZM38.4604 16.4333C37.875 15.7208 37.2312 15.05 36.5479 14.4396L32.6083 18.5396C33.3167 19.1292 33.9583 19.7979 34.5229 20.5333L38.4604 16.4333ZM26.3958 10.0583C25.9396 10.0229 25.4854 10.0042 25.0458 10.0042C24.6021 10.0042 24.1458 10.0229 23.6917 10.0583V15.8583C24.1417 15.8063 24.5958 15.7792 25.0458 15.7792C25.4937 15.7792 25.95 15.8063 26.3958 15.8583V10.0583ZM25.0437 38.7708C22.35 38.7708 20.1625 36.5854 20.1625 33.8896C20.1625 32.05 21.1812 30.4479 22.6833 29.6167L25.0437 18.5563L27.4042 29.6167C28.9104 30.4479 29.9271 32.05 29.9271 33.8896C29.9271 36.5854 27.7417 38.7708 25.0437 38.7708ZM25 6.25C36.4875 6.25 45.8333 15.5958 45.8333 27.0833C45.8333 30.7458 44.8792 34.375 43.1187 37.5H33.8958C33.0417 39.6813 30.4687 43.75 25 43.75C19.4667 43.75 16.9604 39.6813 16.1042 37.5H6.88125C5.12083 34.375 4.16667 30.7458 4.16667 27.0833C4.16667 15.5958 13.5125 6.25 25 6.25ZM25 2.08334C11.1937 2.08334 0 13.2771 0 27.0833C0 32.4646 1.7 37.5875 4.59375 41.6667H13.6708C15.6083 45.0979 19.9521 47.9167 25 47.9167C30.0479 47.9167 34.3917 45.0979 36.3292 41.6667H45.4062C48.3 37.5875 50 32.4646 50 27.0833C50 13.2771 38.8062 2.08334 25 2.08334Z" fill="white"/>
</g>
<defs>
<clipPath id="clip0_3_64">
<rect width="50" height="50" fill="white"/>
</clipPath>
</defs>
</svg>
