<svg width="50" height="50" viewBox="0 0 50 50" fill="none" xmlns="http://www.w3.org/2000/svg">
<g clip-path="url(#clip0_3_60)">
<path d="M30.2083 35.9125L27.575 38.4417L28.2166 42.0354L25 40.3146L21.7833 42.0375L22.425 38.4437L19.7916 35.9125L23.4083 35.4146L25 32.1292L26.5916 35.4146L30.2083 35.9125ZM24.0021 20.8333L9.65623 4.26875L8.33331 6.25L20.8333 20.8333H24.0021ZM10.5541 2.91875L12.5 0H37.5L39.4208 2.88125L27.8979 16.1875L26.2979 14.3125L33.3333 6.25H16.6666L29.0791 20.8333H26.0708L10.5541 2.91875ZM40.3208 4.23125L41.6666 6.25L30.425 19.1542L28.9208 17.3917L40.3208 4.23125ZM37.5 37.5C37.5 44.4021 31.9041 50 25 50C18.0958 50 12.5 44.4021 12.5 37.5C12.5 30.5979 18.0958 25 25 25C31.9041 25 37.5 30.5979 37.5 37.5ZM33.3333 37.5C33.3333 32.9042 29.5958 29.1667 25 29.1667C20.4041 29.1667 16.6666 32.9042 16.6666 37.5C16.6666 42.0958 20.4041 45.8333 25 45.8333C29.5958 45.8333 33.3333 42.0958 33.3333 37.5Z" fill="white"/>
</g>
<defs>
<clipPath id="clip0_3_60">
<rect width="50" height="50" fill="white"/>
</clipPath>
</defs>
</svg>
