<svg width="50" height="50" viewBox="0 0 50 50" fill="none" xmlns="http://www.w3.org/2000/svg">
<g clip-path="url(#clip0_3_58)">
<path d="M25 0C11.1937 0 0 11.1937 0 25C0 38.8062 11.1937 50 25 50C38.8062 50 50 38.8062 50 25C50 11.1937 38.8062 0 25 0ZM41.1521 38.1354C40.6083 36.9146 39.5083 36.0708 37.2542 35.55C32.4771 34.4479 28.0292 33.4813 30.1854 29.4146C36.7375 17.0354 31.9208 10.4167 25 10.4167C17.9417 10.4167 13.2417 17.2896 19.8146 29.4146C22.0354 33.5062 17.4229 34.4708 12.7458 35.55C10.4875 36.0708 9.39583 36.9208 8.85625 38.1458C5.92917 34.5562 4.16667 29.9812 4.16667 25C4.16667 13.5125 13.5125 4.16667 25 4.16667C36.4875 4.16667 45.8333 13.5125 45.8333 25C45.8333 29.9771 44.0729 34.5479 41.1521 38.1354Z" fill="white"/>
</g>
<defs>
<clipPath id="clip0_3_58">
<rect width="50" height="50" fill="white"/>
</clipPath>
</defs>
</svg>
