<svg width="50" height="50" viewBox="0 0 50 50" fill="none" xmlns="http://www.w3.org/2000/svg">
<g clip-path="url(#clip0_3_62)">
<path fill-rule="evenodd" clip-rule="evenodd" d="M25 18.0542C21.1708 18.0542 18.0562 21.1708 18.0562 25C18.0562 28.8292 21.1708 31.9437 25 31.9437C28.8292 31.9437 31.9437 28.8292 31.9437 25C31.9437 21.1708 28.8292 18.0542 25 18.0542ZM25 34.0271C20.0208 34.0271 15.9729 29.9792 15.9729 25C15.9729 20.0208 20.0208 15.9708 25 15.9708C29.9792 15.9708 34.0271 20.0208 34.0271 25C34.0271 29.9792 29.9792 34.0271 25 34.0271ZM22.5146 47.9167H27.4854C28.275 45.6167 28.8771 42.8104 31.875 41.5625C34.9917 40.2771 37.4292 41.9708 39.4479 42.9625L42.9604 39.4458C41.9021 37.2646 40.3229 34.8646 41.5667 31.8604C42.7479 29.0083 45.1896 28.3958 47.9167 27.4875V22.5125C45.3438 21.6354 42.7687 21.0375 41.5687 18.1417C40.3771 15.2667 41.6875 13.1521 42.9625 10.5521L39.4479 7.03958C37.1208 8.17917 34.8208 9.65833 31.8604 8.43125C28.9979 7.24167 28.4104 4.81875 27.4854 2.08333H22.5146C21.6313 4.64792 21.0479 7.225 18.1417 8.42917C17.3813 8.74792 16.6458 8.9 15.8979 8.9C14.1417 8.9 12.6917 8.08333 10.5521 7.03958L7.0375 10.5521C8.23333 13 9.64375 15.2125 8.43125 18.1417C7.24167 21.0063 4.81875 21.5875 2.08333 22.5125V27.4875C4.6375 28.3583 7.225 28.9562 8.43125 31.8583C9.64167 34.7812 8.275 36.925 7.0375 39.4479L10.5521 42.9625C13.5729 41.4521 15.4583 40.4542 18.1396 41.5687C21.0104 42.7604 21.5875 45.1896 22.5146 47.9167ZM28.9604 50H21.0375C19.6187 46.0042 19.4021 44.3479 17.3437 43.4938C15.25 42.6208 13.7375 43.7687 10.1229 45.4771L4.52083 39.875C6.33958 36.0479 7.36875 34.7396 6.50625 32.6562C5.64792 30.5917 4.02292 30.3917 0 28.9625V21.0375C3.97083 19.625 5.65 19.4083 6.50625 17.3437C7.3625 15.2792 6.35833 13.9833 4.52083 10.1229L10.1229 4.52292C13.75 6.24792 15.2604 7.36667 17.3417 6.50833C19.4083 5.65 19.5958 4.03958 21.0396 0H28.9604C30.3812 3.99583 30.6021 5.65417 32.6562 6.50625C34.7417 7.37292 36.2167 6.25833 39.8792 4.52292L45.4771 10.1229C43.6479 13.9708 42.6417 15.2833 43.4938 17.3417C44.35 19.4083 45.9771 19.6062 50 21.0375V28.9646C46.0292 30.375 44.3479 30.5937 43.4917 32.6583C42.6521 34.6896 43.5833 35.9104 45.4792 39.875L39.8792 45.4771C36.2792 43.7687 34.7396 42.6229 32.6792 43.4875C30.6208 44.3417 30.4292 45.875 28.9604 50Z" fill="white"/>
</g>
<defs>
<clipPath id="clip0_3_62">
<rect width="50" height="50" fill="white"/>
</clipPath>
</defs>
</svg>
