<svg width="72" height="72" viewBox="0 0 72 72" fill="none" xmlns="http://www.w3.org/2000/svg">
<circle cx="36" cy="36" r="36" fill="white"/>
<path d="M52.25 30.2C45.2099 30.2 39.5 35.9771 39.5 43.1C39.5 50.2229 45.2099 56 52.25 56C59.2901 56 65 50.2229 65 43.1C65 35.9771 59.2901 30.2 52.25 30.2ZM53.3125 48.4191V49.55H52.25V48.4771C51.1493 48.4578 50.0124 48.1934 49.0625 47.6967L49.547 45.9294C50.5628 46.3293 51.9142 46.7529 52.9725 46.5099C54.1922 46.2304 54.443 44.9597 53.0936 44.3491C52.1055 43.8826 49.0795 43.4848 49.0795 40.8619C49.0795 39.3977 50.1845 38.0841 52.25 37.7981V36.65H53.3125V37.7444C54.0817 37.7659 54.9445 37.9013 55.9071 38.1959L55.5225 39.9675C54.7065 39.6772 53.8055 39.4149 52.9258 39.4687C51.3448 39.5611 51.2045 40.9479 52.3095 41.5284C54.1285 42.3927 56.5 43.0334 56.5 45.3403C56.5021 47.185 55.072 48.1676 53.3125 48.4191ZM36.5016 36.65H31V32.35H39.0006C37.9721 33.6443 37.1285 35.0891 36.5016 36.65ZM35.25 43.1H31V38.8H35.811C35.4583 40.1782 35.25 41.6144 35.25 43.1ZM41.0449 30.2H31V25.9H45.875V27.1664C44.0921 27.8995 42.4665 28.9337 41.0449 30.2ZM45.875 17.3H31V13H45.875V17.3ZM45.875 23.75H31V19.45H45.875V23.75ZM36.5016 49.55H31V45.25H35.3966C35.5836 46.7507 35.9576 48.1934 36.5016 49.55ZM14 25.9H28.875V30.2H14V25.9ZM14 32.35H28.875V36.65H14V32.35ZM41.0449 56H31V51.7H37.5492C38.48 53.319 39.6615 54.7702 41.0449 56ZM14 45.25H28.875V49.55H14V45.25ZM14 51.7H28.875V56H14V51.7ZM14 38.8H28.875V43.1H14V38.8Z" fill="black"/>
</svg>
